<svg width="213" height="221" viewBox="0 0 213 221" fill="none" xmlns="http://www.w3.org/2000/svg">
<path opacity="0.3" d="M176.982 188.145C187.078 178.95 188.069 161.91 181.807 142.021C175.532 122.088 161.923 99.0964 142.483 77.7507C123.044 56.4049 101.423 40.7102 82.1615 32.6027C62.9431 24.5132 45.8849 23.9097 35.7882 33.1045C25.6916 42.2994 24.7013 59.3395 30.9627 79.2287C37.238 99.1621 50.8474 122.153 70.2866 143.499C89.7259 164.845 111.347 180.54 130.608 188.647C149.827 196.736 166.885 197.34 176.982 188.145Z" stroke="#A6A6A6"/>
<path opacity="0.3" d="M106.385 87.8398L108.511 108.492L129.163 110.618L108.511 112.744L106.385 133.396L104.259 112.744L83.6068 110.618L104.259 108.492L106.385 87.8398Z" fill="#A6A6A6"/>
</svg>
