<svg width="262" height="261" viewBox="0 0 262 261" fill="none" xmlns="http://www.w3.org/2000/svg">
<path d="M127.447 0.548053L135.194 107.009L180.969 10.5799L144.745 110.988L225.784 41.5139L151.851 118.507L254.142 88.0013L155.285 128.267L261.14 142.004L154.453 138.58L245.569 194.184L149.497 147.662L210.12 235.52L141.276 153.944L160.923 258.863L131.211 156.339L106.485 260.178L121.042 154.433L56.218 239.238L112.527 148.556L18.8143 199.662L107.139 139.723L0.741135 148.295L105.809 129.462L5.12348 94.0174L108.768 119.548L31.2036 46.2149L115.503 111.694L74.472 13.1529L124.851 107.259L127.447 0.548053Z" fill="#50C9C3"/>
</svg>
